<?xml version="1.0" encoding="UTF-8"?>
<svg width="24px" height="24px" viewBox="0 0 24 24" version="1.1" xmlns="http://www.w3.org/2000/svg" xmlns:xlink="http://www.w3.org/1999/xlink">
    <!-- Generator: sketchtool 57.1 (101010) - https://sketch.com -->
    <title>35F71487-987D-480E-AB28-9B22922580D4</title>
    <desc>Created with sketchtool.</desc>
    <g id="Page-1" stroke="none" stroke-width="1" fill="none" fill-rule="evenodd">
        <g id="Setting-InviteMembers" transform="translate(-259.000000, -555.000000)" fill="#007FF5" fill-rule="nonzero">
            <g id="Group" transform="translate(259.000000, 554.000000)">
                <g id="icons8-プラス" transform="translate(0.000000, 1.000000)">
                    <path d="M12,0 C5.3824727,0 0,5.3824727 0,12 C0,18.6175273 5.3824727,24 12,24 C18.6175273,24 24,18.6175273 24,12 C24,5.3824727 18.6175273,0 12,0 Z M18.2608696,12.5217391 L12.5217391,12.5217391 L12.5217391,18.2608696 L11.4782609,18.2608696 L11.4782609,12.5217391 L5.73913043,12.5217391 L5.73913043,11.4782609 L11.4782609,11.4782609 L11.4782609,5.73913043 L12.5217391,5.73913043 L12.5217391,11.4782609 L18.2608696,11.4782609 L18.2608696,12.5217391 Z" id="Shape"></path>
                </g>
            </g>
        </g>
    </g>
</svg>