<svg width="40" height="10" viewBox="0 0 40 10" fill="none" xmlns="http://www.w3.org/2000/svg">
<path fill-rule="evenodd" clip-rule="evenodd" d="M0 1C0 0.447715 0.447715 0 1 0H39C39.5523 0 40 0.447715 40 1C40 1.55228 39.5523 2 39 2H0.999999C0.447714 2 0 1.55228 0 1ZM0 5C0 4.44772 0.447715 4 1 4H39C39.5523 4 40 4.44772 40 5C40 5.55228 39.5523 6 39 6H0.999999C0.447714 6 0 5.55228 0 5ZM1 8C0.447715 8 0 8.44771 0 9C0 9.55229 0.447714 10 0.999999 10H39C39.5523 10 40 9.55229 40 9C40 8.44771 39.5523 8 39 8H1Z" fill="#C4C4C4"/>
</svg>
