<svg width="11" height="22" viewBox="0 0 11 22" fill="none" xmlns="http://www.w3.org/2000/svg">
<path d="M9 5.99993V16.3989C9 18.0689 7.871 19.5889 6.235 19.9239C3.986 20.3849 2 18.6699 2 16.4999V4.11293C2 3.11693 2.678 2.19093 3.661 2.02793C4.913 1.82093 6 2.78593 6 3.99993V14.4999C6 14.7759 5.775 14.9999 5.5 14.9999C5.225 14.9999 5 14.7759 5 14.4999V5.99993C5 5.44793 4.552 4.99993 4 4.99993C3.448 4.99993 3 5.44793 3 5.99993V14.3529C3 15.6609 3.939 16.8549 5.24 16.9869C6.735 17.1389 8 15.9639 8 14.4999V4.17793C8 2.08993 6.477 0.221931 4.399 0.019931C2.014 -0.212069 0 1.66293 0 3.99993V16.2549C0 19.1259 2.093 21.6939 4.949 21.9729C8.228 22.2939 11 19.7139 11 16.4999V5.99993C11 5.44793 10.552 4.99993 10 4.99993C9.448 4.99993 9 5.44793 9 5.99993Z" fill="black"/>
</svg>
