<svg fill="none" height="24" viewBox="0 0 24 24" width="24" xmlns="http://www.w3.org/2000/svg"><path d="m6.16667 2v3.33333h1.66666v-3.33333zm10.00003 0v3.33333h1.6666v-3.33333zm-13.33337 2.5c-.45898 0-.83333.37435-.83333.83333v2.5c0 .45899.37435.83334.83333.83334v13.33333h18.33337v-13.33333c.459 0 .8333-.37435.8333-.83334v-2.5c0-.45898-.3743-.83333-.8333-.83333h-2.5v1.66667h-3.3334v-1.66667h-6.66663v1.66667h-3.33334v-1.66667zm1.66667 4.16667h15v11.66663h-15zm1.66667 1.66663v1.6667h1.66666v-1.6667zm3.33333 0v1.6667h1.6667v-1.6667zm3.3333 0v1.6667h1.6667v-1.6667zm3.3334 0v1.6667h1.6666v-1.6667zm-10.00003 3.3334v1.6666h1.66666v-1.6666zm3.33333 0v1.6666h1.6667v-1.6666zm3.3333 0v1.6666h1.6667v-1.6666zm3.3334 0v1.6666h1.6666v-1.6666zm-10.00003 3.3333v1.6667h1.66666v-1.6667zm3.33333 0v1.6667h1.6667v-1.6667zm3.3333 0v1.6667h1.6667v-1.6667zm3.3334 0v1.6667h1.6666v-1.6667z"/></svg>