<svg fill="none" height="24" viewBox="0 0 24 24" width="24" xmlns="http://www.w3.org/2000/svg"><path d="m17.4161 1.50552c-1.3317.06383-2.6123.64473-3.6022 1.63417l-3.88324 3.88118c.60994-.61282 2.87404-.19151 3.42334.35747l2.3504-2.34913c.5205-.52025 1.172-.83943 1.8394-.86816.4535-.02234 1.0953.07342 1.6606.63836.5269.52663.6387 1.13945.6387 1.55757 0 .699-.3194 1.3948-.8686 1.94059l-4.0876 4.11093c-1.0283 1.0278-2.5931 1.1108-3.5.2043-.5174-.517-1.37-.5202-1.89055 0-.52053.5203-.52053 1.3693 0 1.8895.93245.932 2.15875 1.4044 3.42335 1.4044 1.3668 0 2.7623-.5586 3.8321-1.6342l4.1132-4.0854c1.0442-1.04053 1.635-2.43213 1.635-3.83012 0-1.29904-.4918-2.53425-1.4051-3.44709-.9772-.97668-2.2897-1.46821-3.6788-1.40437zm-6.3358 6.58777c-1.3668 0-2.78468.56175-3.85767 1.63418l-4.08759 4.08543c-1.04426 1.0405-1.63504 2.4321-1.63504 3.8301 0 1.2991.49179 2.5343 1.40511 3.4471.97719.9767 2.28969 1.4682 3.67883 1.4044 1.33166-.0638 2.61223-.6447 3.60216-1.6342l3.8832-3.8812c-.6131.6129-2.874.1915-3.4233-.3574l-2.35038 2.3491c-.52053.5202-1.17199.8362-1.83942.8681-.45346.0224-1.09534-.0734-1.66058-.6383-.52692-.5266-.63869-1.1427-.63869-1.5576 0-.699.31935-1.3948.86862-1.9406l4.08759-4.1109c1.02826-1.0278 2.59306-1.1076 3.49996-.2043.5206.5202 1.3732.5202 1.8905 0 .5206-.5203.5206-1.3693 0-1.88953-.9324-.932-2.1619-1.40438-3.4233-1.40438z"/></svg>