<svg fill="none" height="24" viewBox="0 0 24 24" width="24" xmlns="http://www.w3.org/2000/svg"><path clip-rule="evenodd" d="m6.61537 12.3077c0 1.2745-1.03318 2.3077-2.30768 2.3077s-2.30769-1.0332-2.30769-2.3077 1.03319-2.3077 2.30769-2.3077 2.30768 1.0332 2.30768 2.3077zm7.69243 0c0 1.2745-1.0332 2.3077-2.3077 2.3077s-2.30768-1.0332-2.30768-2.3077 1.03318-2.3077 2.30768-2.3077 2.3077 1.0332 2.3077 2.3077zm5.3846 2.3077c1.2745 0 2.3077-1.0332 2.3077-2.3077s-1.0332-2.3077-2.3077-2.3077-2.3077 1.0332-2.3077 2.3077 1.0332 2.3077 2.3077 2.3077z" fill-rule="evenodd"/></svg>