<svg width="20" height="20" viewBox="0 0 20 20" fill="none" xmlns="http://www.w3.org/2000/svg">
<path d="M8.607 1.66699C4.78223 1.66699 1.66675 4.78247 1.66675 8.60725C1.66675 12.432 4.78223 15.5475 8.607 15.5475C10.2702 15.5475 11.7977 14.9569 12.9948 13.9765L17.1386 18.1203C17.2026 18.1869 17.2792 18.2401 17.3639 18.2767C17.4487 18.3133 17.5399 18.3327 17.6323 18.3336C17.7246 18.3346 17.8162 18.3171 17.9017 18.2822C17.9872 18.2473 18.0648 18.1957 18.1301 18.1304C18.1954 18.0651 18.247 17.9874 18.2819 17.9019C18.3168 17.8164 18.3343 17.7248 18.3334 17.6325C18.3324 17.5402 18.3131 17.4489 18.2765 17.3642C18.2398 17.2794 18.1866 17.2028 18.12 17.1389L13.9762 12.9951C14.9566 11.7979 15.5473 10.2705 15.5473 8.60725C15.5473 4.78247 12.4318 1.66699 8.607 1.66699ZM8.607 3.05504C11.6816 3.05504 14.1592 5.53263 14.1592 8.60725C14.1592 11.6819 11.6816 14.1594 8.607 14.1594C5.53238 14.1594 3.0548 11.6819 3.0548 8.60725C3.0548 5.53263 5.53238 3.05504 8.607 3.05504Z" fill="#C4C4C4"/>
</svg>
