<svg width="20" height="20" viewBox="0 0 20 20" fill="none" xmlns="http://www.w3.org/2000/svg">
<path d="M8.607 1.66669C4.78223 1.66669 1.66675 4.78216 1.66675 8.60694C1.66675 12.4317 4.78223 15.5472 8.607 15.5472C10.2702 15.5472 11.7977 14.9566 12.9948 13.9761L17.1386 18.12C17.2026 18.1866 17.2792 18.2398 17.3639 18.2764C17.4487 18.313 17.5399 18.3324 17.6323 18.3333C17.7246 18.3343 17.8162 18.3168 17.9017 18.2819C17.9872 18.247 18.0648 18.1954 18.1301 18.1301C18.1954 18.0648 18.247 17.9871 18.2819 17.9016C18.3168 17.8161 18.3343 17.7245 18.3334 17.6322C18.3324 17.5399 18.3131 17.4486 18.2765 17.3639C18.2398 17.2791 18.1866 17.2025 18.12 17.1386L13.9762 12.9948C14.9566 11.7976 15.5473 10.2702 15.5473 8.60694C15.5473 4.78216 12.4318 1.66669 8.607 1.66669ZM8.607 3.05474C11.6816 3.05474 14.1592 5.53232 14.1592 8.60694C14.1592 11.6816 11.6816 14.1591 8.607 14.1591C5.53238 14.1591 3.0548 11.6816 3.0548 8.60694C3.0548 5.53232 5.53238 3.05474 8.607 3.05474Z" fill="#C4C4C4"/>
</svg>
