<svg xmlns="http://www.w3.org/2000/svg" xmlns:xlink="http://www.w3.org/1999/xlink" width="10" height="6"><defs/><defs><path id="a" d="M0 0h12v12H0z"/><path id="b" d="M9.629 4a.382.382 0 00-.254.103L5.999 7.196 2.624 4.103a.382.382 0 00-.262-.101.364.364 0 00-.335.208.312.312 0 00.083.364l3.632 3.328c.142.13.372.13.514 0l3.632-3.328a.313.313 0 00.084-.368A.367.367 0 009.629 4z"/></defs><g fill="none" fill-rule="evenodd" transform="rotate(90 7 4)"><use fill="#FFF" fill-rule="nonzero" stroke="#FFF" stroke-width=".783" transform="rotate(-90 6 6)" xlink:href="#b"/></g></svg>