<svg fill="none" height="24" viewBox="0 0 24 24" width="24" xmlns="http://www.w3.org/2000/svg"><path d="m10.3283 2c-4.58973 0-8.3283 3.73857-8.3283 8.3283 0 4.5897 3.73857 8.3283 8.3283 8.3283 1.9959 0 3.8288-.7087 5.2654-1.8852l4.9726 4.9725c.0767.08.1686.1438.2703.1877.1017.044.2112.0672.322.0684.1108.0011.2207-.0199.3233-.0618s.1958-.1038.2741-.1822c.0784-.0783.1403-.1715.1822-.2741s.0629-.2125.0618-.3233c-.0012-.1108-.0244-.2203-.0684-.322-.0439-.1017-.1077-.1936-.1877-.2703l-4.9725-4.9726c1.1765-1.4366 1.8852-3.2695 1.8852-5.2654 0-4.58973-3.7386-8.3283-8.3283-8.3283zm0 1.66566c3.6895 0 6.6626 2.9731 6.6626 6.66264 0 3.6895-2.9731 6.6626-6.6626 6.6626-3.68954 0-6.66264-2.9731-6.66264-6.6626 0-3.68954 2.9731-6.66264 6.66264-6.66264z"/></svg>